<?xml version="1.0" encoding="utf-8"?>
<!-- Generator: Adobe Illustrator 25.4.1, SVG Export Plug-In . SVG Version: 6.00 Build 0)  -->
<svg version="1.1" id="Ebene_1" xmlns="http://www.w3.org/2000/svg" xmlns:xlink="http://www.w3.org/1999/xlink" x="0px" y="0px"
	 viewBox="0 0 702.8 157.6" style="enable-background:new 0 0 702.8 157.6;" xml:space="preserve">
<style type="text/css">
	.st0{fill:#FFFFFF;}
</style>
<g>
	<path class="st0" d="M467.4,93.9c0.1,1,0.2,2,0.2,3c-0.1,3.5,1.1,7.9-0.6,10.2c-1.5,1.9-6.3,1.1-9.5,1.9c-1.2,0.3-2.8,1.7-3,2.8
		c-0.6,3.7,0.7,8.9-1.3,10.9c-2.1,2-7.2,1-10.9,1.3c-0.1,0-0.3,0.2-1.1,0.8c0,2.9-0.1,6.3,0,9.7c0.1,2.9-0.8,4.2-4,4.2
		c-10.7-0.1-21.3-0.1-32,0c-2.9,0-4.3-0.9-4.1-4c0.2-3.4,0-6.9,0-11c-3.6,0-6.5-0.1-9.5,0c-2.8,0.1-4.1-0.9-3.8-3.7c0.1-1,0-2,0-3
		c0-8.2-2.5-10.1-10.7-7.9c-1,0.3-2.1,2.2-2.3,3.5c-0.6,3.5,0.5,8.2-1.4,10.3c-1.7,1.8-6.6,0.7-10,1c-0.3,0-0.6,0.2-1.8,0.5
		c0,3.3-0.1,6.9,0,10.5c0.1,2.8-0.9,3.9-3.7,3.9c-10.8-0.1-21.7-0.1-32.5,0c-3.2,0-4-1.4-3.9-4.3c0.2-3.3,0-6.6,0-10.3
		c-4.3,0-8.2,0-13,0c0,3.4-0.1,6.9,0,10.3c0.1,2.9-0.8,4.3-3.9,4.3c-10.8-0.1-21.7,0.1-32.5-0.2c-1.2,0-3.3-1.8-3.4-3
		c-0.4-3.7-0.2-7.6-0.2-12c7.2,1.5,6.6-2.9,6.5-7.3c-0.1-15.3,0-30.6,0-46c0-1.9-0.2-3.9-0.3-6c-4.3,0-8.1,0-12.3,0
		c-0.1,2-0.3,3.7-0.3,5.5c0,15.7-0.1,31.3,0,47c0,4.2,0.6,8.7-6.7,6.8c0,3.9-0.1,7.2,0,10.5c0.1,3.3-1,5.1-4.6,4.8
		c-1.5-0.1-3-0.2-4.5,0c-3.6,0.4-4.7-1.3-4.5-4.7c0.2-3.1,0-6.3,0-9.3c-6.7-2.2-6.7-2.2-6.7-9.5c0.1-17.1,0.2-34.3,0.3-51.4
		l-0.1,0.1c2,0,3.9,0,6.6,0c0,9.8,0,19.3,0,29.3c2.4,0,4.1,0,6.3,0c0.1-2,0.2-3.7,0.2-5.5c0-15.7-0.1-31.3,0.1-47
		c0.1-4.4-0.3-7.7-6.6-6.6c0-4.5-0.2-8.6,0.2-12.7c0.1-0.9,2.1-2.3,3.3-2.4c9.6-0.8,9.6-0.8,9.7-9.9c0-2.5-0.5-5.1,3.6-5
		c4.2,0,3.4,2.8,3.4,5.1c0,8,0,16,0,24.8c8,0,15.6,0,23.2,0c9.9,0,9.9,0,9.9,10.1c0,14.3,0.1,28.7-0.1,43c0,4.3-0.1,8.1,6.6,6.4
		c0,10.2,0,19.7,0,29.6c2.4,0,4.1,0,6.6,0c0-4.4,0-8.7,0-13c0-8,0-16,0-24c0-7.4,0-7.4,7.7-7.5c1.6,0,3.3-0.2,5.5-0.3
		c0-3.6,0.2-6.9-0.1-10.1c-0.3-3.5,1.1-4.6,4.6-4.6c10.7,0.2,21.3,0.1,32,0.1c0.8,0,1.6-0.2,2.9-0.3c0-9.6,0-19.1,0-29.4
		c-7.8,0-15.6-0.1-23.4,0.1c-0.9,0-2,1.7-2.5,2.8c-0.4,1-0.1,2.3-0.1,3.5c0,8.6-2.4,10.5-10.9,8.4c-1-0.3-2.3-1.9-2.3-3
		c-0.2-8-0.2-16,0-24c0-1,1.9-2.8,3-2.8c15.7-0.2,31.3-0.2,47,0c1,0,2.7,2.2,2.9,3.4c0.4,3.6,0.1,7.2,0.1,10.9
		c2.5,0.3,4.3,0.6,6.4,0.8c0,9.7,0,19.2,0,28.8c-7.2,2.1-7.2,2.2-5.8,10.8c1.3-0.8,2.5-2.4,3.7-2.3c2.4,0.2,5.8,0.6,6.8,2.2
		c1,1.7,0.4,5.6-1.1,7c-1.3,1.3-5.8,1.6-6.8,0.4c-2.2-2.4-4.4-2.3-7.1-2.3c-9.8,0.1-19.7,0.3-29.5-0.1c-4.9-0.2-7.4,1-6.4,6.3
		c0.1,0.8,0,1.7,0,2.5c0,5.8,0,5.8-6.4,6.7c0,8.8-0.1,17.7,0.1,26.7c0,0.8,1.9,2.2,2.9,2.3c4.5,0.3,9,0.3,13.5,0
		c1.1-0.1,2.1-1.7,3-2.8c0.3-0.4,0-1.3,0.1-2c0.1-9.5,0.1-9.6,9.3-9.9c3-0.1,4-1.1,4-4.1c0.2-10.8,0.3-10.8,11.1-10.8c1,0,2,0,3,0
		c3.8-0.2,8.6,1,11.1-0.9c1.9-1.5,1.2-6.7,1.3-10.3c0.1-3.2,1.6-3.8,4.4-3.8c8.8-0.2,9-0.3,8.7-9.2c-0.2-4.7,1.4-5.9,5.9-5.8
		c11,0.3,22,0.1,33.4,0.1c0-9.9,0-19.4,0-29.6c-7.8,0-15.5-0.1-23.3,0.1c-0.9,0-2.1,1.7-2.4,2.8c-0.4,1.9-0.4,4-0.1,6
		c0.7,5-1.5,6.3-6.2,6.1c-7.3-0.3-7.3,0-7.3-7.4c0-6.3,0.1-12.7,0-19c-0.1-2.9,1.1-3.8,3.8-3.8c15.2,0.1,30.3,0.1,45.5,0
		c2.8,0,3.9,1.1,3.9,3.8c-0.1,3.5,0,6.9,0,10.7c2.3,0.3,4.1,0.6,6.3,0.9c0,9.6,0,19.3,0,29c-6.9,1.6-6.9,1.6-5.7,10.6
		c1.2-0.8,2.3-2.2,3.2-2.1c2.5,0.3,6.3,0.4,7.2,2c1,1.7,0.2,5.7-1.3,7.3c-1.1,1.2-4.7,0.3-7-0.1c-2.1-0.4-4-1.9-6-2
		c-10.3-0.2-20.7,0-31-0.2c-4-0.1-6.1,0.8-5.4,5.2c0.2,1-0.1,2,0,3c0.5,4.3-0.1,7.8-6.1,6.9c0,9.7,0,19.2,0,29c6.1,0,12.3,0,19.3,0
		c0-3.6,0.1-7.1,0-10.5c-0.1-3,1.3-4.3,4.2-4c0.3,0,0.7,0,1,0c9.1,0,7.7,0.6,7.8-8.2c0.1-6.7,0-6.8,6.8-6.7
		c6.6,0.1,13.3,0.3,19.9,0.4C467.5,94,467.4,93.9,467.4,93.9z"/>
	<path class="st0" d="M560.6,49.1c-4.4-0.4-10.3,0.8-12.7-1.6c-2.2-2.2-0.8-8.2-0.9-12.5c-0.1-4.2-0.3-8.4,0.1-12.5
		c0.1-1.3,2.2-3.4,3.4-3.5c11-0.3,22-0.3,33,0c1.2,0,3.2,2.1,3.4,3.4c0.5,3.6,0.2,7.2,0.2,11.4c4.6,0,8.5,0,12.8,0
		c0,10.1,0,19.7,0,29.8c-4,0.2-7.9,0.4-12.7,0.6c0,4.2-0.2,8.3,0.2,12.3c0.1,0.9,2.7,2,4.2,2c8.7,0.4,8.7,0.3,8.7,9
		c0,1.8,0,3.6,0,5.5c2.3,0.4,4.1,0.7,6.5,1c0,9.5,0,19.1,0,29c2.4,0,4.1,0,6.5,0c0-7.9,0.2-15.5-0.1-23.1c-0.2-4.3,0.4-7.4,6.2-6.4
		c0-9.8,0-19.4,0-29.3c-6,0.7-6.5-2.8-6.2-7.6c0.4-6.1,0.2-12.3,0-18.5c-0.1-3.3,1.1-4.3,4.3-4.4c9-0.1,9.2-0.3,9-9.4
		c-0.1-4.4,1.3-5.7,5.7-5.7c14,0.2,28,0.3,42,0c4.9-0.1,6.1,1.7,5.7,6.1c-0.3,2.8-0.1,5.6-0.1,9.1c3.5,0,6.4,0.1,9.4,0
		c3.1-0.2,4.1,1.1,4,4.1c-0.1,6.5,0.2,13-0.1,19.5c-0.2,4.4,0.5,7.3,6.1,6.3c0,10,0,19.7,0,29.8c-5.7-0.9-6.3,2.3-6.1,6.8
		c0.3,6.3-0.1,12.7,0.1,19c0.1,3.3-1.1,4.5-4.4,4.3c-2.8-0.2-5.6,0-8.7,0c0,3.7,0,6.7,0,10.2c1.2-0.9,2.4-2.4,3.5-2.4
		c2.4,0.1,6.1,0.3,6.9,1.7c1,1.9,0.6,6-0.8,7.4c-1.3,1.3-4.9,0.4-7.5,0c-1.9-0.3-3.7-1.9-5.6-1.9c-23.8-0.1-47.7-0.2-71.5,0
		c-4.3,0-5.6-1.4-5.2-5.5c0.3-2.9,0.1-5.9,0.1-9.6c-3,0-5.4-0.3-7.8,0.1c-4.6,0.6-5.6-1.4-5.5-5.7c0.3-11.5-0.1-22.9,0.2-34.4
		c0.1-3.8-1.2-4.9-4.9-4.8c-6.9,0.2-13.9,0.1-21.2,0.1c0,5,0,9.4,0,14.7c2.4,0,4.9,0.2,7.3-0.1c4.3-0.5,6.3,1,5.7,5.5
		c-0.2,1.3,0.1,2.6,0.2,4.5c3.9-2.4,8-4.9,10.8,0.1c0.9,1.7,0.3,5.5-1.1,7.1c-3,3.3-6.2,1.4-9.9-2.4c0,5.2,0,9.2,0,13.2
		c0,4.2-0.2,8.3,0.1,12.5c0.2,3.6-1.3,4.6-4.7,4.6c-8.8,0.1-8.8,0.2-8.8-8.8c0-1.8,0-3.6,0-5.3c-6.7-2.1-6.7-2.1-6.7-9
		c0-15,0.1-30-0.1-45c-0.1-4.5,0.2-8.1,7.1-6.9c0-5.2,0-10,0-14.8c2.2-0.1,4.3-0.2,6.5-0.2c6.7,0,6.6,0,6.7,6.9
		c0.1,8.6-1.6,8,8.4,8.1c0.3,0,0.7,0,1,0c2.5,0.2,3.7-0.7,3.6-3.4c-0.1-7.6,0.1-15.3-0.1-22.9c0-1.1-1.6-3.2-2.5-3.2
		c-7.7-0.3-15.5-0.1-23.5-0.1C560.6,39.5,560.6,44.3,560.6,49.1z M640,123c9,0,17.4,0,26.4,0c0-9.9,0-19.5,0-28
		c2.7-1.5,6.1-2.4,6.1-3.5c0.4-9.1,0.2-18.2,0.2-27.1c-2.5-0.4-4.3-0.7-6.6-1.1c0-9.7,0-19.3,0-28.9c-9,0-17.4,0-26.2,0
		C640,64,640,93.2,640,123z"/>
	<path class="st0" d="M235.5,63.7c-2,0.1-3.9,0.3-6.5,0.5c0,2,0,3.8,0,5.5c0,21.2-0.1,42.3,0.1,63.5c0,4.1-1.1,5.6-5.3,5.5
		c-14.3-0.2-28.7-0.2-43,0c-4.1,0.1-5.8-1.2-5.3-5.4c0.3-2.9,0.1-5.9,0.1-9.5c-7.2,1.1-6.7-3.4-6.6-7.9c0.2-5.3,0-10.7,0-16
		c0-5.8,0-5.8-6.3-6.6c-0.1-1.5-0.3-3.1-0.3-4.7c0-21.5,0.1-43-0.1-64.5c0-4,1-5.7,5.3-5.5c5.6,0.3,11.3,0,17,0.1
		c3.2,0.1,4.7-0.9,4.3-4.3c-0.2-2.3,0-4.7-0.1-7c-0.1-2.5,0.8-3.6,3.4-3.7c2.6,0,3.5,1.1,3.5,3.6c-0.1,7.7,0.2,15.3-0.2,23
		c-0.1,1.7-2.7,3.2-4.2,4.8c-0.5-0.3-1.1-0.7-1.6-1c-0.1,1.6-0.4,3.2-0.4,4.7c0,16.5,0,33,0,49.5c0,2.9,0,5.3,4,5.2
		c0.8,0,2.3,2.5,2.3,3.9c0.2,6.5,0.1,13,0.1,19.5c0,1.8,0,3.6,0,5.9c2.2,0.1,3.9,0.2,6.4,0.3c0-10,0-19.5,0-29.5
		c7,1,6.8-3.1,6.7-7.6c-0.2-7.3,0-14.6,0-21.9c2.4-0.4,4.2-0.6,6.6-1c0-7.7,0.3-15.3-0.1-22.9c-0.2-4.7,0.6-7.6,6.8-6.5
		c0-8.8-0.1-17.3,0.1-25.7c0-1.4,1.5-3.6,2.8-4c2.7-0.9,4.2,0.6,4.2,3.7c-0.1,6.7-0.1,13.3,0,20c0,1.8,0.2,3.6,0.3,5.8
		c5.8-0.8,6.5,2.2,6.3,6.7c-0.3,7.8-0.2,15.7-0.2,23.5C235.4,63.9,235.5,63.7,235.5,63.7z"/>
	<path class="st0" d="M43.2,33.8c3.4,0,6,0,8.6,0c0.8,0,1.9-0.3,2.5,0.1c4.5,2.8,1.3,7.2,1.9,10.8c0.2,1.2-1.7,2.8-2.6,4.2
		c-0.1,0.1-0.3,0-0.5,0c-9.4,1-10,0.5-10.1-9.1c0-1.8-0.2-3.6-0.3-5.3c-12.7-2.5-13.1-2.1-13.1,9.8c0,19.6,0,39.3-0.2,58.9
		c0,4,0.9,5.6,5.3,5.5c8.3-0.2,8.3,0,8.4,8.6c0,1.8,0,3.6,0,6.1c5.9,0,11.7,0.1,17.4-0.1c0.9,0,2.5-1.8,2.5-2.8
		c0.2-8.8,0.1-17.6,0.1-27c-6.7,1.4-7.1-2.1-7-7c0.3-7.7,0-7.7-8-7.9c-1.5,0-2.9-0.3-4.7-0.5c0-4.7,0-9.1,0-14.4
		c8,0,15.7-0.1,23.5,0.1c0.9,0,1.9,1.7,2.7,2.7c0.2,0.3,0,1,0.1,1.5c0.2,3.3-0.7,7.5,1,9.5c1.4,1.7,5.9,0.6,8.9,1.2
		c1.2,0.2,3.1,1.8,3.1,2.7C83.1,95.2,83,109,83,123.5c-4.6,0-8.6,0-13.3,0c0,4-0.1,7.3,0,10.6c0.2,3.1-0.9,4.5-4.2,4.5
		c-15-0.1-30-0.1-45,0c-3.3,0-4.4-1.2-4.2-4.5c0.2-3.3,0-6.6,0-10.3c-6.6,0.9-7-2.8-6.7-7.5c0.3-5.1,0.1-10.3,0.1-15.5
		c0-4.1,1-8.8-6.1-7c0-5.2,0-9.8,0-14.9c4.2,0,8.1,0,12.5,0c0-5.2,0-9.9,0-15c-6.1,0.9-6.3-2.7-6-7.2c0.4-5.5,0.3-11,0-16.5
		c-0.3-4.4,0.5-7.2,6.4-6.4c0-3.8,0.1-7.3,0-10.7c-0.1-2.6,0.5-4.1,3.5-4.1c6.3,0,12.7-0.1,19-0.4c3.2-0.1,4.6,0.9,4.3,4.3
		C43,26.3,43.2,29.7,43.2,33.8z"/>
	<path class="st0" d="M467.5,94c0-4.5-1.5-10,0.6-13.1c1.7-2.6,7.7-2.3,12.2-3.3c0-4,0-8.5,0-13.3c-6.6,0.8-6.7-3.2-6.5-7.9
		c0.3-5.3,0.4-10.7,0-16c-0.3-4.7,0.6-7.6,6.7-6.4c0-4,0.1-7.6,0-11.2c-0.1-2.8,1-3.8,3.8-3.8c10.8,0.1,21.7,0.1,32.5,0
		c2.7,0,3.9,1,3.8,3.8c-0.2,3.5,0,6.9,0,11.2c2.8,0,5.3,0.3,7.7-0.1c4.9-0.7,5.7,1.6,5.7,5.9c-0.2,15.7,0,31.3-0.2,47
		c-0.1,4.6,0.2,8.1,6.4,7c0,10,0,19.5,0,29.3c-1.9,0.3-3.7,0.6-6.3,1.1c0,3.5-0.1,7.1,0,10.6c0.1,2.7-1.1,3.7-3.8,3.9
		c-9.6,0.5-9.6,0.6-9.6-9c0-1.8,0-3.6,0-5.7c2.2-0.4,4.1-0.7,6.3-1.1c0-9.5,0-18.9,0-28.3c-6.4-1.8-6.4-1.8-6.4-8.8
		c0-6.9,0-6.9-7.1-6.9c-4.8,0-9.7,0.2-14.5-0.1c-3.8-0.2-4.9,1.2-4.8,4.9c0.2,16.3-0.1,32.6,0.2,49c0.1,4.5-1.1,6.2-5.8,6
		c-7.8-0.3-7.8,0-7.8-7.9c0-2.1,0-4.3,0-6.9c-7.4,1.1-6.9-3.5-6.8-8.3c0.2-7.1,0.1-14.2,0.1-21.8c-2.6,0-4.5,0-6.5,0
		C467.4,93.9,467.5,94,467.5,94z M520.2,49.3c-2.2-0.1-3.8-0.2-5.4-0.3c-7.6-0.1-7.5,0-7.6-7.6c0-8,1.2-7.4-7.5-7.4
		c-0.7,0-1.5-0.3-2,0.1c-1.3,1-3.4,2.2-3.5,3.4c-0.3,7.6-0.2,15.3,0,22.9c0,1.1,1.4,3.1,2.2,3.1c7.9,0.2,15.8,0.1,23.8,0.1
		C520.2,58.5,520.2,54.2,520.2,49.3z"/>
	<path class="st0" d="M136,138.6c0,4.3-0.1,7.8,0,11.3c0.1,2.6-0.9,3.6-3.5,3.5c-6.5-0.1-13-0.1-19.5,0c-2.8,0-4.1-1-3.8-3.8
		c0-0.2,0-0.3,0-0.5c-0.2-3.3,0.6-7.5-1.1-9.5c-1.4-1.7-5.9-0.9-9-1c-2.6-0.1-3.5-1.2-3.4-3.8c0.2-3.5,0-7,0-10.3
		c-6.6-1.9-6.6-1.9-6.6-8.6c0-7.3,0-14.6,0-21.9c2.3-0.3,3.9-0.6,6.5-0.9c0-3.3,0.2-6.7-0.1-10.1c-0.2-3.1,0.7-4.4,4.1-4.5
		c9.2-0.2,9.3-0.4,9.2-9.7c0-3.7,0.8-5.5,5-5.2c5.8,0.3,11.7,0.2,17.5,0c3.2-0.1,4.8,0.9,4.4,4.2c-0.1,0.5,0,1,0,1.5
		c0.1,8.9,0.1,9,8.9,9.2c3.5,0.1,4.9,1.2,4.5,4.7c-0.2,1.3,0.1,2.7-0.1,4c-0.6,4.4,0.4,7.3,6.1,6.4c0,10,0,19.7,0,29.6
		c-1.9,0.3-3.7,0.6-6,0.9c0,2.2,0,4.4,0,6.5c0,8,0,8-7.8,8C140,138.6,138.3,138.6,136,138.6z M122.7,123.8c0,3.4,0.2,6.7-0.1,9.9
		c-0.3,3.6,1.3,4.8,4.7,4.5c1.3-0.1,2.7-0.1,4,0c3.2,0.3,4.6-1,4.4-4.3c-0.2-3.3,0-6.6,0-10c2.4-0.4,4.4-0.7,6.3-1.1
		c0-9.7,0-19.3,0-29.1c-6.2,1.2-6.8-2.2-6.3-6.6c0.2-1.8,0.2-3.7-0.1-5.5c-0.1-0.9-0.9-2.2-1.7-2.6c-6.9-2.7-11.1,0.3-11.2,7.6
		c0,3.5,1.3,7.8-4.9,7.3c-0.5,0-1.6,1.3-1.6,2c-0.1,8.9-0.1,17.9-0.1,26.9C118.6,123.2,120.3,123.5,122.7,123.8z"/>
	<path class="st0" d="M69.3,18.1c-2.1,1.6-4,4-6.3,4.5c-3.7,0.8-5.9-2.1-6.1-5.5c-0.1-3.6,2.4-6.3,5.9-5.7c2.3,0.3,4.3,2.8,6.4,4.4
		C69.3,16.5,69.3,17.3,69.3,18.1z"/>
	<path class="st0" d="M458.9,22.8c-1-1.4-3.5-3.4-3.9-5.7c-0.6-3.6,2.1-5.8,5.8-5.8c3.5,0,5.6,2.2,5.4,5.7
		C466.1,20.4,464.4,22.7,458.9,22.8z"/>
	<path class="st0" d="M458.8,142.2c-0.9-1.4-3.3-3.5-3.7-5.8c-0.6-3.7,2.2-5.8,5.9-5.6c3.5,0.2,5.5,2.4,5.3,5.9
		C466,140,464.1,142.1,458.8,142.2z"/>
	<path class="st0" d="M386.7,136.3c-0.3,3.4-1.8,5.9-5.8,5.8c-3.7,0-5.4-2.5-5.5-5.8c-0.1-3.5,1.9-5.6,5.5-5.7
		C384.4,130.7,386.5,132.5,386.7,136.3z"/>
	<path class="st0" d="M379.9,23.6c-1.5-2.2-3.9-4.2-4.3-6.6c-0.6-3.6,1.9-5.8,5.8-5.7c3.6,0.2,5.9,2.3,5.1,5.7
		c-0.5,2.4-2.7,4.4-4.2,6.5C381.5,23.6,380.7,23.6,379.9,23.6z"/>
	<path class="st0" d="M155.8,143.6c-3,0.1-5.3-0.1-5-3.9c0.3-3.2,1.3-4.8,4.9-4.6c3.2,0.1,5,0.9,5.1,4.5
		C160.8,143.4,158.5,143.8,155.8,143.6z"/>
	<path class="st0" d="M89.3,45.7c3.7-0.4,5,1.1,5.1,4.5c0,4.2-2.8,3.7-5.4,3.8c-3.1,0.2-4.5-0.8-4.5-4.2
		C84.4,46,86.4,45.3,89.3,45.7z"/>
	<path class="st0" d="M75.7,45.7c3.1-0.2,5.3,0.3,5.5,4.1c0.1,3.8-2,4.4-5,4.3c-2.7-0.1-5,0-4.9-3.8C71.3,47,72.3,45.2,75.7,45.7z"
		/>
	<path class="st0" d="M394.6,54c-2.7,0.1-5,0.2-5-3.6c0-3.4,1-4.9,4.6-4.7c3.1,0.1,5.1,0.6,5.1,4.4C399.3,53.6,397.5,54.3,394.6,54z
		"/>
	<path class="st0" d="M195.9,75.6c3.5-0.4,4.6,1.4,4.6,4.7c-0.1,4.2-3,3.4-5.5,3.7c-3.3,0.3-4.2-1.3-4.2-4.4
		C190.7,75.6,193,75.3,195.9,75.6z"/>
	<path class="st0" d="M261.7,143.6c-3.2,0.5-4.8-0.7-4.8-4.3c0-3.4,1.9-4.1,4.7-4.1c3.3-0.1,4.8,1,4.8,4.5
		C266.4,143.2,264.7,144,261.7,143.6z"/>
	<path class="st0" d="M341.2,113.7c-2.9,0.3-4.7-0.4-4.7-4c0-3.7,2-4.3,5.1-4.4c3.3,0,4.3,1.4,4.5,4.5
		C346.2,113.6,344,114,341.2,113.7z"/>
	<path class="st0" d="M274.9,24.2c-3,0.4-4.6-0.5-4.6-3.9c0-3.6,1.6-4.5,4.8-4.4c3,0,4.6,0.9,4.7,4.2
		C279.9,23.7,278,24.6,274.9,24.2z"/>
	<path class="st0" d="M314.7,54c-3,0.4-4.6-0.4-4.7-3.9c0-3.7,1.7-4.5,4.9-4.4c2.9,0,4.6,0.8,4.7,4.2
		C319.7,53.6,317.8,54.4,314.7,54z"/>
	<path class="st0" d="M50.3,113.7c-3.2,0.3-5.4,0.1-5.3-4c0.1-3.5,1.6-4.1,4.6-4.1c2.9,0,4.8,0.4,4.8,3.9
		C54.3,112.6,53.6,114.5,50.3,113.7z"/>
	<path class="st0" d="M514,113.7c-2.7,0.2-5,0.2-5-3.6c0-3.4,1.2-4.8,4.6-4.7c3.1,0.1,4.9,0.8,4.9,4.4
		C518.6,113.3,516.8,114.1,514,113.7z"/>
	<path class="st0" d="M421.1,113.7c-2.7,0.2-5,0.1-5-3.7c0-3.5,1.4-4.7,4.7-4.6c3,0,4.6,0.9,4.7,4.2
		C425.6,112.9,424.2,114.1,421.1,113.7z"/>
	<path class="st0" d="M646.2,54c-2.9,0.3-4.6-0.5-4.6-4c0-3.6,1.8-4.4,4.9-4.4c3.5-0.1,4.5,1.5,4.6,4.7
		C651.1,54.2,648.9,54.2,646.2,54z"/>
</g>
</svg>
